<svg xmlns="http://www.w3.org/2000/svg" version="1.1" xmlns:xlink="http://www.w3.org/1999/xlink" xmlns:svgjs="http://svgjs.dev/svgjs" width="1440" height="1080" preserveAspectRatio="none" viewBox="0 0 1440 1080"><g mask="url(&quot;#SvgjsMask5180&quot;)" fill="none"><rect width="1440" height="1080" x="0" y="0" fill="url(&quot;#SvgjsLinearGradient5181&quot;)"></rect><use xlink:href="#SvgjsSymbol5188" x="0" y="0"></use><use xlink:href="#SvgjsSymbol5188" x="0" y="720"></use><use xlink:href="#SvgjsSymbol5188" x="720" y="0"></use><use xlink:href="#SvgjsSymbol5188" x="720" y="720"></use></g><defs><mask id="SvgjsMask5180"><rect width="1440" height="1080" fill="#ffffff"></rect></mask><linearGradient x1="6.25%" y1="108.33%" x2="93.75%" y2="-8.33%" gradientUnits="userSpaceOnUse" id="SvgjsLinearGradient5181"><stop stop-color="rgba(0, 0, 0, 1)" offset="0.41"></stop><stop stop-color="rgba(0, 0, 0, 1)" offset="0.62"></stop><stop stop-color="rgba(0, 0, 0, 1)" offset="1"></stop></linearGradient><path d="M-1 0 a1 1 0 1 0 2 0 a1 1 0 1 0 -2 0z" id="SvgjsPath5185"></path><path d="M-3 0 a3 3 0 1 0 6 0 a3 3 0 1 0 -6 0z" id="SvgjsPath5183"></path><path d="M-5 0 a5 5 0 1 0 10 0 a5 5 0 1 0 -10 0z" id="SvgjsPath5184"></path><path d="M2 -2 L-2 2z" id="SvgjsPath5182"></path><path d="M6 -6 L-6 6z" id="SvgjsPath5186"></path><path d="M30 -30 L-30 30z" id="SvgjsPath5187"></path></defs><symbol id="SvgjsSymbol5188"><use xlink:href="#SvgjsPath5182" x="30" y="30" stroke="rgba(115, 90, 201, 1)"></use><use xlink:href="#SvgjsPath5183" x="30" y="90" stroke="rgba(115, 90, 201, 1)"></use><use xlink:href="#SvgjsPath5184" x="30" y="150" stroke="rgba(115, 90, 201, 1)"></use><use xlink:href="#SvgjsPath5185" x="30" y="210" stroke="rgba(115, 90, 201, 1)"></use><use xlink:href="#SvgjsPath5183" x="30" y="270" stroke="rgba(115, 90, 201, 1)"></use><use xlink:href="#SvgjsPath5186" x="30" y="330" stroke="rgba(115, 90, 201, 1)"></use><use xlink:href="#SvgjsPath5182" x="30" y="390" stroke="rgba(115, 90, 201, 1)"></use><use xlink:href="#SvgjsPath5184" x="30" y="450" stroke="rgba(115, 90, 201, 1)"></use><use xlink:href="#SvgjsPath5186" x="30" y="510" stroke="rgba(115, 90, 201, 1)"></use><use xlink:href="#SvgjsPath5186" x="30" y="570" stroke="rgba(115, 90, 201, 1)"></use><use xlink:href="#SvgjsPath5186" x="30" y="630" stroke="rgba(115, 90, 201, 1)"></use><use xlink:href="#SvgjsPath5186" x="30" y="690" stroke="rgba(115, 90, 201, 1)"></use><use xlink:href="#SvgjsPath5184" x="90" y="30" stroke="rgba(115, 90, 201, 1)"></use><use xlink:href="#SvgjsPath5185" x="90" y="90" stroke="rgba(115, 90, 201, 1)"></use><use xlink:href="#SvgjsPath5182" x="90" y="150" stroke="rgba(115, 90, 201, 1)"></use><use xlink:href="#SvgjsPath5184" x="90" y="210" stroke="rgba(115, 90, 201, 1)"></use><use xlink:href="#SvgjsPath5186" x="90" y="270" stroke="rgba(115, 90, 201, 1)"></use><use xlink:href="#SvgjsPath5186" x="90" y="330" stroke="rgba(115, 90, 201, 1)"></use><use xlink:href="#SvgjsPath5186" x="90" y="390" stroke="rgba(115, 90, 201, 1)"></use><use xlink:href="#SvgjsPath5182" x="90" y="450" stroke="rgba(115, 90, 201, 1)"></use><use xlink:href="#SvgjsPath5186" x="90" y="510" stroke="rgba(115, 90, 201, 1)"></use><use xlink:href="#SvgjsPath5186" x="90" y="570" stroke="rgba(115, 90, 201, 1)"></use><use xlink:href="#SvgjsPath5186" x="90" y="630" stroke="rgba(115, 90, 201, 1)"></use><use xlink:href="#SvgjsPath5186" x="90" y="690" stroke="rgba(115, 90, 201, 1)"></use><use xlink:href="#SvgjsPath5186" x="150" y="30" stroke="rgba(115, 90, 201, 1)"></use><use xlink:href="#SvgjsPath5186" x="150" y="90" stroke="rgba(115, 90, 201, 1)"></use><use xlink:href="#SvgjsPath5182" x="150" y="150" stroke="rgba(115, 90, 201, 1)"></use><use xlink:href="#SvgjsPath5186" x="150" y="210" stroke="rgba(115, 90, 201, 1)"></use><use xlink:href="#SvgjsPath5182" x="150" y="270" stroke="rgba(115, 90, 201, 1)"></use><use xlink:href="#SvgjsPath5182" x="150" y="330" stroke="rgba(115, 90, 201, 1)"></use><use xlink:href="#SvgjsPath5183" x="150" y="390" stroke="rgba(115, 90, 201, 1)"></use><use xlink:href="#SvgjsPath5187" x="150" y="450" stroke="rgba(115, 90, 201, 1)" stroke-width="3"></use><use xlink:href="#SvgjsPath5184" x="150" y="510" stroke="rgba(115, 90, 201, 1)"></use><use xlink:href="#SvgjsPath5184" x="150" y="570" stroke="rgba(115, 90, 201, 1)"></use><use xlink:href="#SvgjsPath5182" x="150" y="630" stroke="rgba(115, 90, 201, 1)"></use><use xlink:href="#SvgjsPath5185" x="150" y="690" stroke="rgba(115, 90, 201, 1)"></use><use xlink:href="#SvgjsPath5184" x="210" y="30" stroke="rgba(115, 90, 201, 1)"></use><use xlink:href="#SvgjsPath5184" x="210" y="90" stroke="rgba(115, 90, 201, 1)"></use><use xlink:href="#SvgjsPath5184" x="210" y="150" stroke="rgba(115, 90, 201, 1)"></use><use xlink:href="#SvgjsPath5184" x="210" y="210" stroke="rgba(115, 90, 201, 1)"></use><use xlink:href="#SvgjsPath5187" x="210" y="270" stroke="rgba(115, 90, 201, 1)" stroke-width="3"></use><use xlink:href="#SvgjsPath5184" x="210" y="330" stroke="rgba(115, 90, 201, 1)"></use><use xlink:href="#SvgjsPath5186" x="210" y="390" stroke="rgba(115, 90, 201, 1)"></use><use xlink:href="#SvgjsPath5186" x="210" y="450" stroke="rgba(115, 90, 201, 1)"></use><use xlink:href="#SvgjsPath5184" x="210" y="510" stroke="rgba(115, 90, 201, 1)"></use><use xlink:href="#SvgjsPath5182" x="210" y="570" stroke="rgba(115, 90, 201, 1)"></use><use xlink:href="#SvgjsPath5182" x="210" y="630" stroke="rgba(115, 90, 201, 1)"></use><use xlink:href="#SvgjsPath5184" x="210" y="690" stroke="rgba(115, 90, 201, 1)"></use><use xlink:href="#SvgjsPath5186" x="270" y="30" stroke="rgba(115, 90, 201, 1)"></use><use xlink:href="#SvgjsPath5186" x="270" y="90" stroke="rgba(115, 90, 201, 1)"></use><use xlink:href="#SvgjsPath5186" x="270" y="150" stroke="rgba(115, 90, 201, 1)"></use><use xlink:href="#SvgjsPath5184" x="270" y="210" stroke="rgba(115, 90, 201, 1)"></use><use xlink:href="#SvgjsPath5182" x="270" y="270" stroke="rgba(115, 90, 201, 1)"></use><use xlink:href="#SvgjsPath5182" x="270" y="330" stroke="rgba(115, 90, 201, 1)"></use><use xlink:href="#SvgjsPath5182" x="270" y="390" stroke="rgba(115, 90, 201, 1)"></use><use xlink:href="#SvgjsPath5183" x="270" y="450" stroke="rgba(115, 90, 201, 1)"></use><use xlink:href="#SvgjsPath5186" x="270" y="510" stroke="rgba(115, 90, 201, 1)"></use><use xlink:href="#SvgjsPath5186" x="270" y="570" stroke="rgba(115, 90, 201, 1)"></use><use xlink:href="#SvgjsPath5186" x="270" y="630" stroke="rgba(115, 90, 201, 1)"></use><use xlink:href="#SvgjsPath5183" x="270" y="690" stroke="rgba(115, 90, 201, 1)"></use><use xlink:href="#SvgjsPath5186" x="330" y="30" stroke="rgba(115, 90, 201, 1)"></use><use xlink:href="#SvgjsPath5186" x="330" y="90" stroke="rgba(115, 90, 201, 1)"></use><use xlink:href="#SvgjsPath5187" x="330" y="150" stroke="rgba(115, 90, 201, 1)" stroke-width="3"></use><use xlink:href="#SvgjsPath5182" x="330" y="210" stroke="rgba(115, 90, 201, 1)"></use><use xlink:href="#SvgjsPath5186" x="330" y="270" stroke="rgba(115, 90, 201, 1)"></use><use xlink:href="#SvgjsPath5183" x="330" y="330" stroke="rgba(115, 90, 201, 1)"></use><use xlink:href="#SvgjsPath5186" x="330" y="390" stroke="rgba(115, 90, 201, 1)"></use><use xlink:href="#SvgjsPath5184" x="330" y="450" stroke="rgba(115, 90, 201, 1)"></use><use xlink:href="#SvgjsPath5186" x="330" y="510" stroke="rgba(115, 90, 201, 1)"></use><use xlink:href="#SvgjsPath5184" x="330" y="570" stroke="rgba(115, 90, 201, 1)"></use><use xlink:href="#SvgjsPath5184" x="330" y="630" stroke="rgba(115, 90, 201, 1)"></use><use xlink:href="#SvgjsPath5185" x="330" y="690" stroke="rgba(115, 90, 201, 1)"></use><use xlink:href="#SvgjsPath5186" x="390" y="30" stroke="rgba(115, 90, 201, 1)"></use><use xlink:href="#SvgjsPath5186" x="390" y="90" stroke="rgba(115, 90, 201, 1)"></use><use xlink:href="#SvgjsPath5186" x="390" y="150" stroke="rgba(115, 90, 201, 1)"></use><use xlink:href="#SvgjsPath5184" x="390" y="210" stroke="rgba(115, 90, 201, 1)"></use><use xlink:href="#SvgjsPath5182" x="390" y="270" stroke="rgba(115, 90, 201, 1)"></use><use xlink:href="#SvgjsPath5184" x="390" y="330" stroke="rgba(115, 90, 201, 1)"></use><use xlink:href="#SvgjsPath5182" x="390" y="390" stroke="rgba(115, 90, 201, 1)"></use><use xlink:href="#SvgjsPath5184" x="390" y="450" stroke="rgba(115, 90, 201, 1)"></use><use xlink:href="#SvgjsPath5184" x="390" y="510" stroke="rgba(115, 90, 201, 1)"></use><use xlink:href="#SvgjsPath5184" x="390" y="570" stroke="rgba(115, 90, 201, 1)"></use><use xlink:href="#SvgjsPath5186" x="390" y="630" stroke="rgba(115, 90, 201, 1)"></use><use xlink:href="#SvgjsPath5184" x="390" y="690" stroke="rgba(115, 90, 201, 1)"></use><use xlink:href="#SvgjsPath5186" x="450" y="30" stroke="rgba(115, 90, 201, 1)"></use><use xlink:href="#SvgjsPath5184" x="450" y="90" stroke="rgba(115, 90, 201, 1)"></use><use xlink:href="#SvgjsPath5186" x="450" y="150" stroke="rgba(115, 90, 201, 1)"></use><use xlink:href="#SvgjsPath5186" x="450" y="210" stroke="rgba(115, 90, 201, 1)"></use><use xlink:href="#SvgjsPath5182" x="450" y="270" stroke="rgba(115, 90, 201, 1)"></use><use xlink:href="#SvgjsPath5182" x="450" y="330" stroke="rgba(115, 90, 201, 1)"></use><use xlink:href="#SvgjsPath5184" x="450" y="390" stroke="rgba(115, 90, 201, 1)"></use><use xlink:href="#SvgjsPath5184" x="450" y="450" stroke="rgba(115, 90, 201, 1)"></use><use xlink:href="#SvgjsPath5186" x="450" y="510" stroke="rgba(115, 90, 201, 1)"></use><use xlink:href="#SvgjsPath5187" x="450" y="570" stroke="rgba(115, 90, 201, 1)" stroke-width="3"></use><use xlink:href="#SvgjsPath5184" x="450" y="630" stroke="rgba(115, 90, 201, 1)"></use><use xlink:href="#SvgjsPath5184" x="450" y="690" stroke="rgba(115, 90, 201, 1)"></use><use xlink:href="#SvgjsPath5182" x="510" y="30" stroke="rgba(115, 90, 201, 1)"></use><use xlink:href="#SvgjsPath5183" x="510" y="90" stroke="rgba(115, 90, 201, 1)"></use><use xlink:href="#SvgjsPath5183" x="510" y="150" stroke="rgba(115, 90, 201, 1)"></use><use xlink:href="#SvgjsPath5183" x="510" y="210" stroke="rgba(115, 90, 201, 1)"></use><use xlink:href="#SvgjsPath5186" x="510" y="270" stroke="rgba(115, 90, 201, 1)"></use><use xlink:href="#SvgjsPath5184" x="510" y="330" stroke="rgba(115, 90, 201, 1)"></use><use xlink:href="#SvgjsPath5187" x="510" y="390" stroke="rgba(115, 90, 201, 1)" stroke-width="3"></use><use xlink:href="#SvgjsPath5186" x="510" y="450" stroke="rgba(115, 90, 201, 1)"></use><use xlink:href="#SvgjsPath5183" x="510" y="510" stroke="rgba(115, 90, 201, 1)"></use><use xlink:href="#SvgjsPath5184" x="510" y="570" stroke="rgba(115, 90, 201, 1)"></use><use xlink:href="#SvgjsPath5186" x="510" y="630" stroke="rgba(115, 90, 201, 1)"></use><use xlink:href="#SvgjsPath5185" x="510" y="690" stroke="rgba(115, 90, 201, 1)"></use><use xlink:href="#SvgjsPath5185" x="570" y="30" stroke="rgba(115, 90, 201, 1)"></use><use xlink:href="#SvgjsPath5184" x="570" y="90" stroke="rgba(115, 90, 201, 1)"></use><use xlink:href="#SvgjsPath5186" x="570" y="150" stroke="rgba(115, 90, 201, 1)"></use><use xlink:href="#SvgjsPath5183" x="570" y="210" stroke="rgba(115, 90, 201, 1)"></use><use xlink:href="#SvgjsPath5186" x="570" y="270" stroke="rgba(115, 90, 201, 1)"></use><use xlink:href="#SvgjsPath5187" x="570" y="330" stroke="rgba(115, 90, 201, 1)" stroke-width="3"></use><use xlink:href="#SvgjsPath5186" x="570" y="390" stroke="rgba(115, 90, 201, 1)"></use><use xlink:href="#SvgjsPath5184" x="570" y="450" stroke="rgba(115, 90, 201, 1)"></use><use xlink:href="#SvgjsPath5185" x="570" y="510" stroke="rgba(115, 90, 201, 1)"></use><use xlink:href="#SvgjsPath5185" x="570" y="570" stroke="rgba(115, 90, 201, 1)"></use><use xlink:href="#SvgjsPath5184" x="570" y="630" stroke="rgba(115, 90, 201, 1)"></use><use xlink:href="#SvgjsPath5184" x="570" y="690" stroke="rgba(115, 90, 201, 1)"></use><use xlink:href="#SvgjsPath5186" x="630" y="30" stroke="rgba(115, 90, 201, 1)"></use><use xlink:href="#SvgjsPath5187" x="630" y="90" stroke="rgba(115, 90, 201, 1)" stroke-width="3"></use><use xlink:href="#SvgjsPath5187" x="630" y="150" stroke="rgba(115, 90, 201, 1)" stroke-width="3"></use><use xlink:href="#SvgjsPath5185" x="630" y="210" stroke="rgba(115, 90, 201, 1)"></use><use xlink:href="#SvgjsPath5182" x="630" y="270" stroke="rgba(115, 90, 201, 1)"></use><use xlink:href="#SvgjsPath5182" x="630" y="330" stroke="rgba(115, 90, 201, 1)"></use><use xlink:href="#SvgjsPath5186" x="630" y="390" stroke="rgba(115, 90, 201, 1)"></use><use xlink:href="#SvgjsPath5184" x="630" y="450" stroke="rgba(115, 90, 201, 1)"></use><use xlink:href="#SvgjsPath5182" x="630" y="510" stroke="rgba(115, 90, 201, 1)"></use><use xlink:href="#SvgjsPath5187" x="630" y="570" stroke="rgba(115, 90, 201, 1)" stroke-width="3"></use><use xlink:href="#SvgjsPath5184" x="630" y="630" stroke="rgba(115, 90, 201, 1)"></use><use xlink:href="#SvgjsPath5183" x="630" y="690" stroke="rgba(115, 90, 201, 1)"></use><use xlink:href="#SvgjsPath5186" x="690" y="30" stroke="rgba(115, 90, 201, 1)"></use><use xlink:href="#SvgjsPath5184" x="690" y="90" stroke="rgba(115, 90, 201, 1)"></use><use xlink:href="#SvgjsPath5186" x="690" y="150" stroke="rgba(115, 90, 201, 1)"></use><use xlink:href="#SvgjsPath5185" x="690" y="210" stroke="rgba(115, 90, 201, 1)"></use><use xlink:href="#SvgjsPath5186" x="690" y="270" stroke="rgba(115, 90, 201, 1)"></use><use xlink:href="#SvgjsPath5184" x="690" y="330" stroke="rgba(115, 90, 201, 1)"></use><use xlink:href="#SvgjsPath5186" x="690" y="390" stroke="rgba(115, 90, 201, 1)"></use><use xlink:href="#SvgjsPath5182" x="690" y="450" stroke="rgba(115, 90, 201, 1)"></use><use xlink:href="#SvgjsPath5185" x="690" y="510" stroke="rgba(115, 90, 201, 1)"></use><use xlink:href="#SvgjsPath5186" x="690" y="570" stroke="rgba(115, 90, 201, 1)"></use><use xlink:href="#SvgjsPath5186" x="690" y="630" stroke="rgba(115, 90, 201, 1)"></use><use xlink:href="#SvgjsPath5187" x="690" y="690" stroke="rgba(115, 90, 201, 1)" stroke-width="3"></use></symbol></svg>