<svg xmlns="http://www.w3.org/2000/svg" version="1.1" xmlns:xlink="http://www.w3.org/1999/xlink" xmlns:svgjs="http://svgjs.dev/svgjs" width="1440" height="560" preserveAspectRatio="none" viewBox="0 0 1440 560"><g mask="url(&quot;#SvgjsMask4340&quot;)" fill="none"><rect width="1440" height="560" x="0" y="0" fill="url(&quot;#SvgjsLinearGradient4341&quot;)"></rect><path d="M181.41,447.966C207.236,448.405,234.821,442.365,248.193,420.266C261.936,397.552,255.386,369.63,243.024,346.136C229.526,320.485,210.336,295.215,181.41,293.35C149.787,291.311,118.585,308.903,104.304,337.191C91.086,363.374,101.695,393.986,118.451,418.058C132.677,438.496,156.512,447.542,181.41,447.966" fill="rgba(48, 33, 85, 0.48)" class="triangle-float3"></path><path d="M1179.247,279.397C1222.551,281.477,1269.085,264.765,1288.127,225.817C1305.797,189.675,1279.489,151.521,1258.563,117.162C1238.889,84.858,1217.034,48.684,1179.247,47.04C1139.445,45.308,1106.063,74.713,1087,109.696C1068.801,143.095,1068.927,182.742,1087.093,216.16C1106.163,251.241,1139.364,277.481,1179.247,279.397" fill="rgba(48, 33, 85, 0.48)" class="triangle-float1"></path><path d="M1086.416797903068 85.40645024814344L1107.5040518950345 169.98280649975038 1223.8249592764619 96.06374738599712z" fill="rgba(48, 33, 85, 0.48)" class="triangle-float1"></path><path d="M299.702,506.678C353.144,503.727,396.775,466.573,421.103,418.898C443.223,375.55,437.792,325.272,413.911,282.868C389.512,239.543,349.288,207.015,299.702,203.331C242.813,199.104,182.449,215.305,151.754,263.389C119.009,314.683,121.008,381.725,152.627,433.721C183.103,483.837,241.136,509.912,299.702,506.678" fill="rgba(48, 33, 85, 0.48)" class="triangle-float1"></path><path d="M1272.613,510.569C1320.393,510.151,1367.444,494.162,1394.013,454.448C1423.889,409.791,1436.505,351.771,1410.186,304.93C1383.441,257.331,1327.155,235.922,1272.613,238.387C1222.234,240.664,1180.105,272.717,1155.018,316.465C1130.076,359.961,1121.498,413.721,1147.479,456.605C1172.706,498.245,1223.929,510.995,1272.613,510.569" fill="rgba(48, 33, 85, 0.48)" class="triangle-float3"></path><path d="M415.70497736864843 157.32757375845657L577.9487535001756 101.63545883512695 466.5144965689641 1.2996032209394741z" fill="rgba(48, 33, 85, 0.48)" class="triangle-float1"></path><path d="M773.949,409.27C795.75,408.462,815.5,396.661,826.183,377.64C836.647,359.008,834.537,337.105,825.304,317.834C814.324,294.916,799.353,269.266,773.949,268.617C747.928,267.952,729.938,292.041,717.84,315.088C706.753,336.21,702.338,361.285,714.547,381.779C726.516,401.869,750.58,410.136,773.949,409.27" fill="rgba(48, 33, 85, 0.48)" class="triangle-float3"></path><path d="M662.703,521.996C690.409,523.068,719.886,515.624,734.24,491.902C749,467.509,744.151,436.48,729.102,412.264C714.906,389.421,689.585,375.963,662.703,376.793C637.179,377.581,615.673,393.961,603.043,416.155C590.564,438.083,587.759,464.737,600.148,486.716C612.747,509.068,637.064,521.004,662.703,521.996" fill="rgba(48, 33, 85, 0.48)" class="triangle-float1"></path></g><defs><mask id="SvgjsMask4340"><rect width="1440" height="560" fill="#ffffff"></rect></mask><linearGradient x1="50%" y1="100%" x2="50%" y2="0%" gradientUnits="userSpaceOnUse" id="SvgjsLinearGradient4341"><stop stop-color="#0e2a47" offset="0"></stop><stop stop-color="rgba(19, 14, 32, 1)" offset="0.58"></stop><stop stop-color="rgba(19, 14, 32, 1)" offset="1"></stop></linearGradient><style>
                @keyframes float1 {
                    0%{transform: translate(0, 0)}
                    50%{transform: translate(-10px, 0)}
                    100%{transform: translate(0, 0)}
                }

                .triangle-float1 {
                    animation: float1 5s infinite;
                }

                @keyframes float2 {
                    0%{transform: translate(0, 0)}
                    50%{transform: translate(-5px, -5px)}
                    100%{transform: translate(0, 0)}
                }

                .triangle-float2 {
                    animation: float2 4s infinite;
                }

                @keyframes float3 {
                    0%{transform: translate(0, 0)}
                    50%{transform: translate(0, -10px)}
                    100%{transform: translate(0, 0)}
                }

                .triangle-float3 {
                    animation: float3 6s infinite;
                }
            </style></defs></svg>